<svg width="221" height="63" viewBox="0 0 221 63" fill="none" xmlns="http://www.w3.org/2000/svg">
<path fill-rule="evenodd" clip-rule="evenodd" d="M31.8251 9.24854L21.0006 33.4675L30.8103 45.9097L41.663 33.401L45.0174 10.047L31.8251 9.24854Z" fill="#6DBCE3"/>
<path fill-rule="evenodd" clip-rule="evenodd" d="M0 7.21899L19.7885 32.0035L30.1902 9.11525L0 7.21899Z" fill="#0093D0"/>
<path fill-rule="evenodd" clip-rule="evenodd" d="M28.8933 7.21912L12.262 0L14.8271 6.15454L28.8933 7.21912Z" fill="#0093D0"/>
<path fill-rule="evenodd" clip-rule="evenodd" d="M44.7355 8.08407L39.887 0L32.7834 7.55179L44.7355 8.08407Z" fill="#B4D8EF"/>
<path fill-rule="evenodd" clip-rule="evenodd" d="M21.649 37.127L16.3777 62.6101L29.6546 47.2736L21.649 37.127Z" fill="#0093D0"/>
<path fill-rule="evenodd" clip-rule="evenodd" d="M71.3457 0H41.9166L46.7651 8.05081L71.3457 0Z" fill="#0093D0"/>
<path fill-rule="evenodd" clip-rule="evenodd" d="M63.5938 36.4616H60.8877L58.5198 54.027C58.4634 54.4928 58.097 54.8587 57.7023 54.8587H52.3183C51.9236 54.8587 51.6699 54.4928 51.7263 54.027L55.0244 29.4089C55.8701 23.1878 58.5198 21.7905 62.1844 21.7905C63.3119 21.7905 64.4958 21.9236 65.4261 22.1232C65.8489 22.223 66.1308 22.4892 66.0462 22.9549L65.5106 26.9138C65.4543 27.3795 65.0878 27.7122 64.665 27.7122H63.171C62.2971 27.7122 61.987 28.1447 61.8179 29.3756L61.677 30.5067H64.3831C64.7777 30.5067 65.0314 30.8726 64.975 31.3384L64.4113 35.5967C64.3549 36.0957 63.9884 36.4616 63.5938 36.4616ZM77.0398 36.761H76.5324C75.0103 36.761 73.5162 37.0272 72.3323 37.7258L70.1618 53.9605C70.1054 54.4262 69.7671 54.892 69.3161 54.892H63.9884C63.5656 54.892 63.2837 54.4262 63.3401 53.9605L66.3563 31.3716C66.4127 30.9059 66.6946 30.54 67.1738 30.54H72.2759C72.7833 30.54 72.9525 30.7396 72.8679 31.3716L72.727 32.3697C74.5874 30.4069 75.8841 30.2073 77.7728 30.2073C78.3647 30.2073 78.4493 30.3736 78.3647 31.039L77.6882 36.129C77.66 36.628 77.4909 36.761 77.0398 36.761ZM94.827 44.9449H83.8051V45.0447C83.4951 47.2737 84.1152 48.6376 86.6804 48.6376C88.5691 48.6376 92.0645 48.438 93.4457 48.305C94.0095 48.2717 94.2068 48.3715 94.1222 49.0036L93.6148 52.7629C93.5303 53.4282 93.333 53.7276 92.741 53.9272C90.3449 54.7922 87.8643 55.2247 84.8763 55.2247C80.0842 55.2247 76.0532 52.2638 77.1244 44.2796L77.4909 41.5183C78.4775 34.1661 82.6212 30.1407 88.4281 30.1407C94.6296 30.1407 96.8847 34.7982 95.9827 41.5183L95.6444 44.0134C95.6444 44.579 95.2498 44.9449 94.827 44.9449ZM89.6684 40.3872C90.0067 37.8921 89.3583 36.3618 87.5824 36.3618C85.8911 36.3618 84.7636 37.8589 84.4253 40.3872L84.3971 40.5203H89.6402L89.6684 40.3872ZM114.446 44.9449H103.425V45.0447C103.114 47.2737 103.735 48.6376 106.3 48.6376C108.188 48.6376 111.684 48.438 113.065 48.305C113.629 48.2717 113.826 48.3715 113.742 49.0036L113.234 52.7629C113.15 53.4282 112.952 53.7276 112.36 53.9272C109.964 54.7922 107.484 55.2247 104.496 55.2247C99.7036 55.2247 95.6726 52.2638 96.7438 44.2796L97.1103 41.5183C98.0969 34.1661 102.241 30.1407 108.076 30.1407C114.277 30.1407 116.532 34.7982 115.63 41.5183L115.292 44.0134C115.236 44.579 114.869 44.9449 114.446 44.9449ZM109.288 40.3872C109.626 37.8921 108.978 36.3618 107.202 36.3618C105.511 36.3618 104.383 37.8589 104.045 40.3872L104.017 40.5203H109.26L109.288 40.3872ZM121.634 54.8587H116.279C115.884 54.8587 115.574 54.393 115.63 53.9272L119.746 23.3541C119.802 22.8884 120.253 22.5224 120.648 22.5224H126.004C126.398 22.5224 126.652 22.8884 126.596 23.3541L122.48 53.9272C122.424 54.393 122.029 54.8587 121.634 54.8587ZM140.465 54.8587H135.532C135.137 54.8587 134.883 54.4928 134.94 54.027L135.052 53.1621C133.558 54.3264 131.641 55.2579 129.696 55.2579C126.906 55.2579 123.89 53.4282 124.651 47.7727L124.707 47.2737C125.384 42.2502 128.851 40.4538 134.77 40.4538H136.293L136.462 39.2561C136.744 37.1935 136.208 36.8276 134.46 36.8276C132.487 36.8276 129.245 37.0272 128.259 37.127C127.639 37.1603 127.526 36.7943 127.582 36.2953L128.118 32.2366C128.202 31.6045 128.513 31.4049 128.964 31.2386C130.176 30.8061 133.305 30.2405 135.588 30.2405C140.718 30.2405 144.186 32.403 143.283 39.2894L141.31 54.0936C141.226 54.4928 140.859 54.8587 140.465 54.8587ZM135.954 44.7786H134.207C132.431 44.7786 131.641 45.4439 131.388 47.2071L131.331 47.6396C131.134 49.0701 131.895 49.4693 132.882 49.4693C133.727 49.4693 134.742 49.1699 135.362 48.8372L135.954 44.7786ZM160.93 54.8587H155.602C155.179 54.8587 154.897 54.393 154.954 53.9272L156.842 39.7551C157.152 37.5262 156.645 36.8276 155.038 36.8276C154.221 36.8276 153.15 37.1935 152.276 37.6925L150.105 53.9272C150.049 54.393 149.711 54.8587 149.259 54.8587H143.932C143.509 54.8587 143.227 54.393 143.283 53.9272L146.3 31.3384C146.356 30.8726 146.723 30.5067 147.117 30.5067H152.05C152.445 30.5067 152.699 30.8726 152.642 31.3384L152.501 32.3032C154.615 30.6398 156.645 30.174 158.646 30.174C164.2 30.174 164.312 34.765 163.636 39.7551L161.747 53.9272C161.691 54.393 161.352 54.8587 160.93 54.8587ZM176.659 54.5593C175.419 54.892 173.812 55.2247 171.726 55.2247C166.314 55.2247 163.805 51.1327 164.735 44.2796L165.158 41.1524C166.06 34.3325 169.668 30.1407 175.109 30.1407C177.195 30.1407 178.914 30.5067 179.872 30.8061C180.324 30.9392 180.549 31.1388 180.464 31.6711L179.844 36.3951C179.788 36.8941 179.506 37.26 178.999 37.1935C177.815 37.0604 176.687 36.8941 174.968 36.8941C173.445 36.8941 172.402 38.0252 171.98 41.1191L171.557 44.2463C171.134 47.3402 171.895 48.438 173.417 48.438C175.165 48.438 176.293 48.3715 177.533 48.1719C178.068 48.1054 178.238 48.438 178.181 48.9703L177.561 53.6611C177.42 54.2266 177.138 54.4595 176.659 54.5593ZM197.462 44.9449H186.44V45.0447C186.13 47.2737 186.751 48.6376 189.316 48.6376C191.204 48.6376 194.7 48.438 196.081 48.305C196.645 48.2717 196.842 48.3715 196.758 49.0036L196.25 52.7629C196.166 53.4282 195.968 53.7276 195.376 53.9272C192.98 54.7922 190.5 55.2247 187.512 55.2247C182.72 55.2247 178.689 52.2638 179.76 44.2796L180.126 41.5183C181.113 34.1661 185.257 30.1407 191.063 30.1407C197.265 30.1407 199.52 34.7982 198.618 41.5183L198.28 44.0134C198.252 44.579 197.885 44.9449 197.462 44.9449ZM192.276 40.3872C192.614 37.8921 191.965 36.3618 190.19 36.3618C188.498 36.3618 187.371 37.8589 187.032 40.3872L187.004 40.5203H192.247L192.276 40.3872ZM208.597 30.54L205.44 53.9605C205.383 54.4262 205.045 54.892 204.594 54.892H199.295C198.872 54.892 198.59 54.4262 198.646 53.9605L200.732 38.4577L208.597 30.54Z" fill="#3C3F47"/>
<path fill-rule="evenodd" clip-rule="evenodd" d="M221 30.5398H210.401L209.302 38.5573L221 30.5398Z" fill="#0093D0"/>
</svg>
