<svg width="194" height="64" viewBox="0 0 194 64" fill="none" xmlns="http://www.w3.org/2000/svg">
<path d="M0.287964 50.7465H11.6244V29.5813H11.8053L18.9811 43.0282H26.2773L33.453 29.7017H33.634V50.7465H44.9703V7.93359H33.3323L22.7196 29.2194H22.599L11.8657 7.93359H0.287964V50.7465Z" fill="#212E44"/>
<path d="M66.4371 51.3496C69.6932 51.3496 72.1655 50.2642 73.9746 48.0331L74.0951 48.0936V50.7467H84.3461V21.1996H73.5523V24.0942H73.4319C71.3817 21.8027 68.6078 20.5967 65.7738 20.5967C58.4171 20.5967 52.6886 26.8679 52.6886 35.9731C52.6886 45.0786 58.3569 51.3496 66.4371 51.3496ZM68.849 41.9429C65.7738 41.9429 63.603 39.5913 63.603 35.9731C63.603 32.4758 65.7738 30.0638 68.849 30.0638C71.6832 30.0638 74.0348 32.4758 74.0348 35.9731C74.0348 39.5913 71.6832 41.9429 68.849 41.9429Z" fill="#212E44"/>
<path d="M106.717 63.2892C119.139 63.2892 123.059 56.3546 123.059 46.4654V21.1996H112.265V23.9736L112.145 24.0338C110.034 21.7423 107.14 20.5967 104.064 20.5967C96.949 20.5967 91.4012 26.8679 91.4012 35.6717C91.4012 43.8725 96.8283 50.1438 104.667 50.1438C107.984 50.1438 110.577 49.0583 112.446 47.0683L112.567 47.1288V49.7217C112.567 52.3144 110.094 54.4852 105.331 54.4852C102.557 54.4852 98.9387 53.3998 96.8283 52.0733L94.4767 60.5756C98.2754 62.5654 101.712 63.2892 106.717 63.2892ZM107.562 40.6767C104.607 40.6767 102.316 38.5661 102.316 35.4304C102.316 32.2948 104.607 30.1242 107.562 30.1242C110.456 30.1242 112.747 32.2948 112.747 35.4304C112.747 38.5661 110.456 40.6767 107.562 40.6767Z" fill="#212E44"/>
<path d="M179.984 51.3494C186.075 51.3494 190.657 49.4199 193.371 46.4049L187.039 39.4101C185.291 41.0986 183.723 41.8222 181.311 41.8222C177.813 41.8222 175.221 39.5307 175.221 36.0334C175.221 32.4757 177.753 30.1842 181.251 30.1842C182.879 30.1842 185.049 30.9078 186.316 32.5963L193.13 25.5411C189.753 21.8628 184.748 20.6567 180.226 20.6567C170.638 20.6567 164.367 26.8074 164.367 36.0936C164.367 45.199 170.939 51.3494 179.984 51.3494Z" fill="#212E44"/>
<mask id="mask0_205_323" style="mask-type:luminance" maskUnits="userSpaceOnUse" x="128" y="0" width="17" height="16">
<path d="M128.68 0.679932H144.253V15.4533H128.68V0.679932Z" fill="white"/>
</mask>
<g mask="url(#mask0_205_323)">
<mask id="mask1_205_323" style="mask-type:luminance" maskUnits="userSpaceOnUse" x="128" y="0" width="17" height="16">
<path d="M136.709 0.825645L138.896 5.26669C138.929 5.34439 139.007 5.40002 139.096 5.41106L143.992 6.12169C144.203 6.15502 144.292 6.42148 144.136 6.56585L140.595 10.0188C140.528 10.0742 140.506 10.1631 140.517 10.2519L141.35 15.1371C141.383 15.3481 141.161 15.5146 140.972 15.4146L136.587 13.1052C136.509 13.0609 136.42 13.0609 136.342 13.1052L131.957 15.4146C131.768 15.5146 131.546 15.3481 131.579 15.1371L132.412 10.2519C132.423 10.1631 132.401 10.0854 132.334 10.0188L128.804 6.56585C128.648 6.41044 128.737 6.15502 128.948 6.12169L133.844 5.41106C133.933 5.40002 134 5.34439 134.044 5.26669L136.231 0.825645C136.331 0.636895 136.609 0.636895 136.709 0.825645Z" fill="white"/>
</mask>
<g mask="url(#mask1_205_323)">
<path d="M128.726 0.681152H144.225V15.4478H128.726V0.681152Z" fill="#5D5FEF"/>
</g>
</g>
<mask id="mask2_205_323" style="mask-type:luminance" maskUnits="userSpaceOnUse" x="131" y="21" width="12" height="30">
<path d="M131.136 21.4946H142.015V50.133H131.136V21.4946Z" fill="white"/>
</mask>
<g mask="url(#mask2_205_323)">
<path d="M131.136 21.4946H142.015V50.133H131.136V21.4946Z" fill="#212E44"/>
</g>
<path d="M123.42 60.9767H124.888V58.1355H127.813V56.8047H124.888V54.798H128.394V53.4778H123.42V60.9767Z" fill="#5D5FEF"/>
<path d="M132.545 61.0717C134.467 61.0717 135.597 59.8255 135.597 57.8715V53.4778H134.108V57.7765C134.108 58.9699 133.453 59.6776 132.545 59.6776C131.552 59.6776 131.003 58.8538 131.003 57.7765V53.4778H129.513V57.8715C129.513 59.9205 130.738 61.0717 132.545 61.0717Z" fill="#5D5FEF"/>
<path d="M137.117 60.9767H141.944V59.6565H138.628V53.4778H137.117V60.9767Z" fill="#5D5FEF"/>
<path d="M143.074 60.9767H144.542V58.1355H147.467V56.8047H144.542V54.798H148.048V53.4778H143.074V60.9767Z" fill="#5D5FEF"/>
<path d="M149.305 60.9767H150.815V53.4778H149.305V60.9767Z" fill="#5D5FEF"/>
<path d="M152.494 60.9767H157.321V59.6565H154.004V53.4778H152.494V60.9767Z" fill="#5D5FEF"/>
<path d="M158.45 60.9767H163.277V59.6565H159.961V53.4778H158.45V60.9767Z" fill="#5D5FEF"/>
<path d="M164.417 60.9767H165.896V56.3294H165.917L167.734 59.5615H168.695L170.522 56.3401H170.543V60.9767H172.022V53.4778H170.533L168.23 57.7449H168.209L165.907 53.4778H164.417V60.9767Z" fill="#5D5FEF"/>
<path d="M173.658 60.9767H178.675V59.6565H175.126V57.9032H177.788V56.604H175.126V54.798H178.453V53.4778H173.658V60.9767Z" fill="#5D5FEF"/>
<path d="M179.974 60.9767H181.452V56.0232H181.473L184.801 60.9767H186.29V53.4778H184.822V58.5369H184.801L181.431 53.4778H179.974V60.9767Z" fill="#5D5FEF"/>
<path d="M189.457 60.9767H190.957V54.798H193.038V53.4778H187.408V54.798H189.457V60.9767Z" fill="#5D5FEF"/>
<mask id="mask3_205_323" style="mask-type:luminance" maskUnits="userSpaceOnUse" x="148" y="21" width="12" height="30">
<path d="M148.914 21.4946H159.794V50.133H148.914V21.4946Z" fill="white"/>
</mask>
<g mask="url(#mask3_205_323)">
<path d="M148.914 21.4946H159.794V50.133H148.914V21.4946Z" fill="#212E44"/>
</g>
<mask id="mask4_205_323" style="mask-type:luminance" maskUnits="userSpaceOnUse" x="146" y="0" width="17" height="16">
<path d="M146.6 0.679932H162.12V15.4533H146.6V0.679932Z" fill="white"/>
</mask>
<g mask="url(#mask4_205_323)">
<mask id="mask5_205_323" style="mask-type:luminance" maskUnits="userSpaceOnUse" x="146" y="0" width="17" height="16">
<path d="M154.587 0.825645L156.774 5.26669C156.808 5.34439 156.885 5.40002 156.974 5.41106L161.871 6.12169C162.081 6.15502 162.17 6.42148 162.015 6.56585L158.473 10.0188C158.406 10.0742 158.384 10.1631 158.395 10.2519L159.228 15.1371C159.261 15.3481 159.039 15.5146 158.851 15.4146L154.465 13.1052C154.387 13.0609 154.299 13.0609 154.221 13.1052L149.835 15.4146C149.646 15.5146 149.424 15.3481 149.458 15.1371L150.29 10.2519C150.301 10.1631 150.279 10.0854 150.213 10.0188L146.682 6.56585C146.526 6.41044 146.615 6.15502 146.826 6.12169L151.723 5.41106C151.811 5.40002 151.878 5.34439 151.923 5.26669L154.11 0.825645C154.21 0.636895 154.487 0.636895 154.587 0.825645Z" fill="white"/>
</mask>
<g mask="url(#mask5_205_323)">
<path d="M146.604 0.681152H162.104V15.4478H146.604V0.681152Z" fill="#5D5FEF"/>
</g>
</g>
</svg>
