<svg width="20" height="20" viewBox="0 0 20 20" fill="none" xmlns="http://www.w3.org/2000/svg">
<g clip-path="url(#clip0_525_1774)">
<path d="M18.1405 3.762C18.1394 3.75043 18.1374 3.7391 18.1354 3.72776C18.1347 3.72381 18.1344 3.71976 18.1336 3.71581C18.1309 3.70214 18.1274 3.68876 18.1235 3.67552C18.123 3.67395 18.1227 3.67233 18.1223 3.67081C18.1182 3.65738 18.1133 3.64424 18.1081 3.63133C18.1076 3.6299 18.1071 3.62843 18.1066 3.62705C18.1015 3.61486 18.0957 3.60305 18.0897 3.59143C18.0886 3.58929 18.0877 3.587 18.0866 3.58486C18.0809 3.57443 18.0747 3.56443 18.0684 3.55448C18.0663 3.55129 18.0646 3.5479 18.0625 3.54476C18.0565 3.53581 18.0498 3.52733 18.0433 3.51886C18.0403 3.51505 18.0377 3.51105 18.0346 3.50729C18.0269 3.4979 18.0186 3.48905 18.0102 3.48029C18.0078 3.47786 18.0058 3.47524 18.0035 3.47286L14.6701 0.139524C14.6679 0.137286 14.6654 0.135333 14.6631 0.133143C14.6542 0.124619 14.6452 0.11619 14.6357 0.108381C14.6322 0.105476 14.6283 0.102952 14.6247 0.10019C14.616 0.0934286 14.6073 0.0866667 14.5982 0.0805714C14.5952 0.0785714 14.5921 0.0769524 14.5891 0.0750476C14.5789 0.0685714 14.5687 0.0621905 14.5581 0.0565238C14.5561 0.0554762 14.554 0.054619 14.552 0.0535714C14.5402 0.0474762 14.5283 0.0416667 14.5159 0.0365238C14.5146 0.0359524 14.5132 0.0355714 14.5118 0.035C14.4989 0.0297619 14.4857 0.0249048 14.4722 0.0208095C14.4706 0.0203333 14.4689 0.0200476 14.4673 0.0195714C14.4541 0.0157143 14.4408 0.0121905 14.4272 0.00947619C14.4232 0.00866667 14.4191 0.00833333 14.4151 0.00761905C14.4038 0.00566667 14.3925 0.00366667 14.381 0.00252381C14.3652 0.000809524 14.3493 0 14.3334 0H2.33337C2.07042 0 1.85718 0.21319 1.85718 0.47619V19.5238C1.85718 19.7868 2.07042 20 2.33337 20H17.6667C17.9297 20 18.1429 19.7868 18.1429 19.5238V3.80952C18.1429 3.79357 18.1421 3.77771 18.1405 3.762ZM14.8096 1.62581L16.5171 3.33333H14.8096V1.62581ZM2.80956 19.0476V0.952381H13.8572V3.80952C13.8572 4.07252 14.0704 4.28571 14.3334 4.28571H17.1905V19.0476H2.80956Z" fill="white"/>
<path d="M6.14294 7.33334C6.14294 7.59634 6.35618 7.80953 6.61913 7.80953H9.66675C9.92971 7.80953 10.1429 7.59634 10.1429 7.33334C10.1429 7.07034 9.92971 6.85715 9.66675 6.85715H6.61913C6.35618 6.85715 6.14294 7.07034 6.14294 7.33334Z" fill="white"/>
<path d="M9.5715 4.95238C9.5715 4.16467 8.93064 3.52381 8.14293 3.52381C7.35521 3.52381 6.71436 4.16467 6.71436 4.95238C6.71436 5.7401 7.35521 6.38095 8.14293 6.38095C8.93064 6.38095 9.5715 5.7401 9.5715 4.95238ZM7.66674 4.95238C7.66674 4.68981 7.88036 4.47619 8.14293 4.47619C8.4055 4.47619 8.61912 4.68981 8.61912 4.95238C8.61912 5.21495 8.4055 5.42857 8.14293 5.42857C7.88036 5.42857 7.66674 5.21495 7.66674 4.95238Z" fill="white"/>
<path d="M4.71435 9.71429H11.5715C11.8344 9.71429 12.0477 9.5011 12.0477 9.2381V7.71943C12.0477 7.45643 11.8344 7.24324 11.5715 7.24324C11.3085 7.24324 11.0953 7.45643 11.0953 7.71943V8.76191H5.19054V2.85714H11.0953V6.09524C11.0953 6.35824 11.3085 6.57143 11.5715 6.57143C11.8344 6.57143 12.0477 6.35824 12.0477 6.09524V2.38095C12.0477 2.11795 11.8344 1.90476 11.5715 1.90476H4.71435C4.4514 1.90476 4.23816 2.11795 4.23816 2.38095V9.2381C4.23816 9.5011 4.4514 9.71429 4.71435 9.71429Z" fill="white"/>
<path d="M15.2858 11.1429H4.71435C4.4514 11.1429 4.23816 11.3561 4.23816 11.6191C4.23816 11.8821 4.4514 12.0952 4.71435 12.0952H15.2858C15.5487 12.0952 15.762 11.8821 15.762 11.6191C15.762 11.3561 15.5487 11.1429 15.2858 11.1429Z" fill="white"/>
<path d="M15.2858 13.5238H4.71435C4.4514 13.5238 4.23816 13.737 4.23816 14C4.23816 14.263 4.4514 14.4762 4.71435 14.4762H15.2858C15.5487 14.4762 15.762 14.263 15.762 14C15.762 13.737 15.5487 13.5238 15.2858 13.5238Z" fill="white"/>
<path d="M15.2858 15.9048H4.71435C4.4514 15.9048 4.23816 16.118 4.23816 16.381C4.23816 16.644 4.4514 16.8571 4.71435 16.8571H15.2858C15.5487 16.8571 15.762 16.644 15.762 16.381C15.762 16.118 15.5487 15.9048 15.2858 15.9048Z" fill="white"/>
</g>
<defs>
<clipPath id="clip0_525_1774">
<rect width="20" height="20" fill="white"/>
</clipPath>
</defs>
</svg>
