<svg width="20" height="20" viewBox="0 0 20 20" fill="none" xmlns="http://www.w3.org/2000/svg">
<path fill-rule="evenodd" clip-rule="evenodd" d="M4.99996 1.66666C3.15901 1.66666 1.66663 3.15905 1.66663 5V15C1.66663 16.8409 3.15901 18.3333 4.99996 18.3333H15C16.8409 18.3333 18.3333 16.8409 18.3333 15V5C18.3333 3.15905 16.8409 1.66666 15 1.66666H4.99996ZM3.33329 5C3.33329 4.07952 4.07948 3.33333 4.99996 3.33333H15C15.9205 3.33333 16.6666 4.07952 16.6666 5V15C16.6666 15.9205 15.9205 16.6667 15 16.6667H4.99996C4.07948 16.6667 3.33329 15.9205 3.33329 15V5ZM8.92254 8.08926C9.24796 7.76381 9.24796 7.23618 8.92254 6.91074C8.59713 6.58531 8.06948 6.58531 7.74403 6.91074L5.24403 9.41075C4.9186 9.73616 4.9186 10.2638 5.24403 10.5892L7.74403 13.0892C8.06948 13.4147 8.59713 13.4147 8.92254 13.0892C9.24796 12.7638 9.24796 12.2362 8.92254 11.9107L7.0118 10L8.92254 8.08926ZM12.2559 6.91074C11.9305 6.58531 11.4028 6.58531 11.0774 6.91074C10.752 7.23618 10.752 7.76381 11.0774 8.08926L12.9881 10L11.0774 11.9107C10.752 12.2362 10.752 12.7638 11.0774 13.0892C11.4028 13.4147 11.9305 13.4147 12.2559 13.0892L14.7559 10.5892C15.0813 10.2638 15.0813 9.73616 14.7559 9.41075L12.2559 6.91074Z" fill="white"/>
</svg>
