<svg width="32" height="32" viewBox="0 0 32 32" fill="none" xmlns="http://www.w3.org/2000/svg">
<path d="M23.4667 8.42665C22.4892 7.44188 21.3257 6.66128 20.044 6.13023C18.7621 5.59917 17.3875 5.32829 16 5.33332C14.1452 5.33513 12.3233 5.82425 10.7169 6.75169C9.11058 7.67913 7.7761 9.01235 6.84712 10.6178C5.91813 12.2233 5.42727 14.0447 5.42367 15.8995C5.42009 17.7544 5.9039 19.5776 6.82666 21.1867L5.33333 26.6667L10.9333 25.2C12.4797 26.0603 14.2172 26.5188 15.9867 26.5333C18.7996 26.5335 21.4987 25.4224 23.4963 23.4421C25.494 21.462 26.6287 18.7728 26.6533 15.96C26.644 14.5564 26.3576 13.1685 25.8108 11.8757C25.264 10.583 24.4673 9.41092 23.4667 8.42665ZM16 24.7067C14.4236 24.7077 12.876 24.284 11.52 23.48L11.2 23.28L7.87999 24.16L8.76 20.92L8.54666 20.5867C7.41233 18.7556 6.98898 16.572 7.35682 14.4496C7.72466 12.3273 8.85814 10.4135 10.5425 9.07096C12.2269 7.72837 14.3452 7.0502 16.4961 7.16491C18.6471 7.2796 20.6813 8.17921 22.2133 9.69332C23.888 11.3309 24.8467 13.5647 24.88 15.9067C24.8589 18.2479 23.914 20.486 22.2509 22.1341C20.588 23.7821 18.3413 24.7068 16 24.7067ZM20.8133 18.12C20.5467 17.9867 19.2533 17.3467 19.0133 17.2667C18.7733 17.1867 18.5867 17.1333 18.4133 17.4C18.1525 17.7575 17.872 18.1001 17.5733 18.4267C17.4267 18.6133 17.2667 18.6267 17 18.4267C15.4796 17.8259 14.2129 16.7192 13.4133 15.2933C13.1333 14.8267 13.68 14.8533 14.1867 13.8533C14.2241 13.7812 14.2436 13.7012 14.2436 13.62C14.2436 13.5388 14.2241 13.4588 14.1867 13.3867C14.1867 13.2533 13.5867 11.9467 13.3733 11.4267C13.16 10.9067 12.9467 10.9867 12.7733 10.9733H12.2533C12.1186 10.9754 11.9859 11.0062 11.864 11.0637C11.7421 11.1212 11.6339 11.204 11.5467 11.3067C11.2475 11.5976 11.0141 11.9492 10.8623 12.3379C10.7105 12.7266 10.6438 13.1433 10.6667 13.56C10.7503 14.5575 11.1259 15.5081 11.7467 16.2933C12.8829 17.9944 14.4401 19.3724 16.2667 20.2933C17.2247 20.8525 18.338 21.0864 19.44 20.96C19.8069 20.8872 20.1545 20.738 20.46 20.522C20.7656 20.3061 21.0223 20.0283 21.2133 19.7067C21.3904 19.3141 21.4461 18.8777 21.3733 18.4533C21.2533 18.32 21.08 18.2533 20.8133 18.12Z" fill="#ABB2BF"/>
</svg>
